first trial
nRows=4
nColumns=179

# SIMM Motion File Header:
name first trial
datacolumns 179
datarows 4
otherdata 1
endheader
time	pelvis_tx	pelvis_ty	pelvis_tz	pelvis_list	pelvis_rotation	pelvis_tilt	hip_flexion_r	hip_adduction_r	hip_rotation_r	knee_angle_r	ankle_angle_r	hip_flexion_l	hip_adduction_l	hip_rotation_l	knee_angle_l	ankle_angle_l	lumbar_extension	lumbar_bending	lumbar_rotation	arm_add_r	arm_rot_r	arm_flex_r	elbow_flex_r	pro_sup_r	wrist_dev_r	wrist_flex_r	arm_add_l	arm_rot_l	arm_flex_l	elbow_flex_l	pro_sup_l	wrist_dev_l	wrist_flex_l	subtalar_angle_r	mtp_angle_r	subtalar_angle_l	mtp_angle_l	R.ASIS_tx	R.ASIS_ty	R.ASIS_tz	L.ASIS_tx	L.ASIS_ty	L.ASIS_tz	V.Sacral_tx	V.Sacral_ty	V.Sacral_tz	R.Thigh.Upper_tx	R.Thigh.Upper_ty	R.Thigh.Upper_tz	R.Thigh.Front_tx	R.Thigh.Front_ty	R.Thigh.Front_tz	R.Thigh.Rear_tx	R.Thigh.Rear_ty	R.Thigh.Rear_tz	L.Thigh.Upper_tx	L.Thigh.Upper_ty	L.Thigh.Upper_tz	L.Thigh.Front_tx	L.Thigh.Front_ty	L.Thigh.Front_tz	L.Thigh.Rear_tx	L.Thigh.Rear_ty	L.Thigh.Rear_tz	R.Shank.Upper_tx	R.Shank.Upper_ty	R.Shank.Upper_tz	R.Shank.Front_tx	R.Shank.Front_ty	R.Shank.Front_tz	R.Shank.Rear_tx	R.Shank.Rear_ty	R.Shank.Rear_tz	L.Shank.Upper_tx	L.Shank.Upper_ty	L.Shank.Upper_tz	L.Shank.Front_tx	L.Shank.Front_ty	L.Shank.Front_tz	L.Shank.Rear_tx	L.Shank.Rear_ty	L.Shank.Rear_tz	R.Heel_tx	R.Heel_ty	R.Heel_tz	R.Midfoot.Sup_tx	R.Midfoot.Sup_ty	R.Midfoot.Sup_tz	R.Midfoot.Lat_tx	R.Midfoot.Lat_ty	R.Midfoot.Lat_tz	R.Toe.Tip_tx	R.Toe.Tip_ty	R.Toe.Tip_tz	L.Heel_tx	L.Heel_ty	L.Heel_tz	L.Midfoot.Sup_tx	L.Midfoot.Sup_ty	L.Midfoot.Sup_tz	L.Midfoot.Lat_tx	L.Midfoot.Lat_ty	L.Midfoot.Lat_tz	L.Toe.Tip_tx	L.Toe.Tip_ty	L.Toe.Tip_tz	Sternum_tx	Sternum_ty	Sternum_tz	R.Acromium_tx	R.Acromium_ty	R.Acromium_tz	L.Acromium_tx	L.Acromium_ty	L.Acromium_tz	R.Bicep_tx	R.Bicep_ty	R.Bicep_tz	L.Bicep_tx	L.Bicep_ty	L.Bicep_tz	R.Elbow_tx	R.Elbow_ty	R.Elbow_tz	L.Elbow_tx	L.Elbow_ty	L.Elbow_tz	R.Wrist.Med_tx	R.Wrist.Med_ty	R.Wrist.Med_tz	R.Wrist.Lat_tx	R.Wrist.Lat_ty	R.Wrist.Lat_tz	L.Wrist.Med_tx	L.Wrist.Med_ty	L.Wrist.Med_tz	L.Wrist.Lat_tx	L.Wrist.Lat_ty	L.Wrist.Lat_tz	R.Toe.Lat_tx	R.Toe.Lat_ty	R.Toe.Lat_tz	R.Toe.Med_tx	R.Toe.Med_ty	R.Toe.Med_tz	L.Toe.Lat_tx	L.Toe.Lat_ty	L.Toe.Lat_tz	L.Toe.Med_tx	L.Toe.Med_ty	L.Toe.Med_tz	R.Temple_tx	R.Temple_ty	R.Temple_tz	L.Temple_tx	L.Temple_ty	L.Temple_tz	Top.Head_tx	Top.Head_ty	Top.Head_tz	ground_force_vx	ground_force_vy	ground_force_vz	ground_force_px	ground_force_py	ground_force_pz	ground_force_vx	ground_force_vy	ground_force_vz	ground_force_px	ground_force_py	ground_force_pz	ground_torque_x	ground_torque_y	ground_torque_z	ground_torque_x	ground_torque_y	ground_torque_z
      0.40000000	      0.60006418	      1.04340537	     -0.02226518	     -1.50832982	     -1.02119875	     10.10602354	     15.41002031	     -3.40723896	     -6.17112100	    -57.28765983	      4.41056622	    -10.81901234	      1.70077028	     -3.52109300	     -8.96551346	      8.52755598	    -25.21400917	      1.78676454	    -13.10889003	     -9.72350061	     43.45215888	     13.88984247	      0.00000000	     71.30741515	      0.00000000	      0.00000000	    -11.26501616	    -34.17875508	     20.36369176	      0.00000000	     90.00000018	      0.00000000	      0.00000000	      0.00000000	      0.00000000	      0.00000000	      0.00000000	      0.61910333	      1.09045813	      0.10894250	      0.62988654	      1.06698022	     -0.15137877	      0.42435693	      1.07636011	     -0.02018594	      0.68161316	      0.78776093	      0.18013235	      0.76644531	      0.74900189	      0.09539773	      0.71993060	      0.67134082	      0.18063560	      0.55075330	      0.76705042	     -0.19166548	      0.64136023	      0.72460608	     -0.12954550	      0.54213293	      0.65760400	     -0.16943947	      0.66146088	      0.52440973	      0.16815569	      0.72201062	      0.45664890	      0.12524571	      0.63741290	      0.44029593	      0.17596649	      0.50895920	      0.44434430	     -0.15903812	      0.55379553	      0.39143555	     -0.10703139	      0.48423337	      0.40269937	     -0.16404820	      0.44402286	      0.19508333	      0.07413287	      0.58104193	      0.13969444	      0.06502344	      0.54856665	      0.12715199	      0.16565877	      0.68932117	      0.05219983	      0.12248187	      0.38662598	      0.07985453	     -0.06049500	      0.55604730	      0.07562897	     -0.03134732	      0.54031238	      0.06670791	     -0.12866071	      0.66673242	      0.04735282	     -0.05977267	      0.65385455	      1.38455713	     -0.03506422	      0.54032251	      1.48295947	      0.16463165	      0.60250513	      1.49331201	     -0.24865218	      0.52174597	      1.28741980	      0.21679396	      0.64333173	      1.25644275	     -0.26641357	      0.46219867	      1.19183582	      0.24376811	      0.60814954	      1.15242358	     -0.30224387	      0.58311169	      0.95148029	      0.26569965	      0.53372919	      0.94203412	      0.30806052	      0.76151923	      0.96264734	     -0.22815800	      0.72573285	      0.93579706	     -0.28846783	      0.61411713	      0.06486423	      0.19003366	      0.64360205	      0.07234293	      0.08588586	      0.60177850	      0.04003970	     -0.13617090	      0.61678351	      0.04940313	     -0.03406335	      0.72318658	      1.60561816	      0.04501458	      0.74008154	      1.60785889	     -0.09301118	      0.73756396	      1.78146594	     -0.01718364	      0.00000000	      0.00000000	      0.00000000	      0.56242555	     -0.00750000	      0.11145632	    -16.54576903	    610.78324293	     39.34126416	      0.57300599	     -0.00750000	     -0.08677411	      0.00000000	      0.00000000	      0.00000000	      0.00000000	      3.18314137	      0.00000000
      0.41700000	      0.59745623	      1.04264612	     -0.02363596	     -1.41859265	     -0.94297865	     10.03327125	     16.04065784	     -3.55393875	     -6.58273879	    -52.53647197	      4.49215097	    -12.39571553	      1.91260053	     -3.40309130	     -7.65148639	      8.58392555	    -25.21138805	      1.95319241	    -13.18370385	     -9.82841904	     43.17758859	     13.81256675	      0.00000000	     71.13381527	      0.00000000	      0.00000000	    -11.33402139	    -34.73520854	     21.35574399	      0.00000000	     90.00000018	      0.00000000	     -0.05729578	      0.00000000	      0.00000000	      0.00000000	      0.00000000	      0.61702380	      1.08969397	      0.10802449	      0.62649298	      1.06557300	     -0.15253879	      0.42120102	      1.07564343	     -0.02144083	      0.67981976	      0.78811365	      0.17968100	      0.76524054	      0.75057733	      0.09313425	      0.72147931	      0.67242242	      0.17864856	      0.54222778	      0.76735797	     -0.19298524	      0.63187396	      0.72283295	     -0.13051170	      0.53136194	      0.65807056	     -0.17024254	      0.66621521	      0.51980676	      0.16624081	      0.73405450	      0.45755130	      0.12444235	      0.64958966	      0.43480725	      0.17478519	      0.49360245	      0.44441422	     -0.15906609	      0.53757959	      0.39129730	     -0.10670685	      0.46852457	      0.40355911	     -0.16423424	      0.47844156	      0.17084813	      0.07553097	      0.62032239	      0.12888440	      0.06782940	      0.58848511	      0.11400223	      0.16840230	      0.73604858	      0.05196946	      0.12692435	      0.36805429	      0.08081319	     -0.06054709	      0.53801105	      0.07603526	     -0.03192724	      0.52163855	      0.06673323	     -0.12899617	      0.64766553	      0.04694080	     -0.05992447	      0.65203516	      1.38370593	     -0.03520795	      0.54012866	      1.48181140	      0.16464732	      0.60354712	      1.49251941	     -0.24866341	      0.51873114	      1.28604163	      0.21683472	      0.64278778	      1.25615564	     -0.26630658	      0.45901694	      1.19085608	      0.24302901	      0.60814001	      1.15153406	     -0.30345023	      0.57985577	      0.95108228	      0.26477786	      0.52933063	      0.94063214	      0.30752359	      0.76815570	      0.96763892	     -0.22654204	      0.73298145	      0.93903931	     -0.28707681	      0.65915442	      0.05856345	      0.19407030	      0.68873395	      0.06777984	      0.08979696	      0.58287469	      0.03975217	     -0.13655698	      0.59757208	      0.04912465	     -0.03437283	      0.72145087	      1.60374585	      0.04533698	      0.73891498	      1.60628247	     -0.09220281	      0.73672327	      1.78006860	     -0.01670554	      0.00000000	      0.00000000	      0.00000000	      0.58706825	     -0.00750000	      0.11066197	    -10.04113250	    613.31407368	     39.48144978	      0.55756726	     -0.00750000	     -0.08885356	      0.00000000	      0.00000000	      0.00000000	      0.00000000	      2.78864571	      0.00000000
      0.43300000	      0.59530453	      1.04119185	     -0.02377218	     -1.14662235	     -1.07729903	      9.92101973	     16.49357197	     -3.84756904	     -7.08451814	    -47.34794049	      4.49036946	    -13.96532644	      2.30605573	     -3.50793215	     -6.32987622	      8.68315302	    -24.93183536	      1.74862959	    -13.13532938	     -9.79500925	     44.31078075	     13.56092056	      0.00000000	     69.65986591	      0.00000000	      0.00000000	    -11.42041535	    -35.19213342	     22.09723821	      0.00000000	     90.00000018	      0.00000000	     -0.11459156	      0.00000000	      0.00000000	      0.00000000	      0.00000000	      0.61464880	      1.08783704	      0.10810713	      0.62427246	      1.06382593	     -0.15215265	      0.41862671	      1.07450964	     -0.02137909	      0.67691644	      0.78691797	      0.17895811	      0.76288690	      0.75038306	      0.09081805	      0.72045868	      0.67175818	      0.17690436	      0.53410571	      0.76742902	     -0.19385718	      0.62324200	      0.72149988	     -0.13084744	      0.51914935	      0.65818835	     -0.16908833	      0.67100452	      0.51520294	      0.16513710	      0.74215497	      0.45708099	      0.12412057	      0.66039423	      0.42714893	      0.17415749	      0.47844641	      0.44531262	     -0.15936032	      0.52339526	      0.39175754	     -0.10801033	      0.45299716	      0.40443610	     -0.16434946	      0.51518341	      0.14739450	      0.07662081	      0.66073828	      0.11947893	      0.07095599	      0.62943787	      0.10250784	      0.17142419	      0.78256647	      0.05404951	      0.13254686	      0.34959351	      0.08189159	     -0.06033311	      0.52012469	      0.07651582	     -0.03248185	      0.50306955	      0.06680403	     -0.12907664	      0.62880316	      0.04665717	     -0.06007640	      0.65012671	      1.38147839	     -0.03464855	      0.53910339	      1.48049365	      0.16470242	      0.60178290	      1.49168250	     -0.24891670	      0.51375708	      1.28383911	      0.21621761	      0.64002844	      1.25536926	     -0.26557498	      0.45607144	      1.18965271	      0.24250182	      0.60893268	      1.15056238	     -0.30340558	      0.57647583	      0.94961572	      0.26429941	      0.52611475	      0.93911804	      0.30624396	      0.77281842	      0.97180969	     -0.22537427	      0.73908569	      0.94160986	     -0.28513315	      0.70512793	      0.05473386	      0.19867097	      0.73449597	      0.06526286	      0.09448268	      0.56400543	      0.03958410	     -0.13688405	      0.57861475	      0.04903682	     -0.03474490	      0.72138263	      1.60186047	      0.04614613	      0.73822260	      1.60458459	     -0.09148122	      0.73663666	      1.77796191	     -0.01519028	      0.00000000	      0.00000000	      0.00000000	      0.61004984	     -0.00750000	      0.10994630	     -5.30597523	    618.35823924	     40.28167058	      0.54371302	     -0.00750000	     -0.09074920	      0.00000000	      0.00000000	      0.00000000	      0.00000000	      2.31581362	      0.00000000
      0.45000000	      0.59323117	      1.03965933	     -0.02397455	     -0.77917365	     -1.03798862	      9.98086155	     16.45520062	     -4.23225289	     -7.87338629	    -41.64671674	      4.30829720	    -15.61687729	      2.74497223	     -3.42365214	     -5.21064829	      8.85033559	    -24.99048621	      1.46770803	    -13.06970556	     -9.75521308	     42.90637087	     13.46107753	      0.00000000	     71.04614626	      0.00000000	      0.00000000	    -11.59582018	    -35.11000748	     22.88381868	      0.00000000	     90.00000018	      0.00000000	     -0.17188734	      0.00000000	      0.00000000	      0.00000000	      0.00000000	      0.61190210	      1.08574841	      0.10820331	      0.62159009	      1.06228027	     -0.15231360	      0.41659839	      1.07301965	     -0.02032210	      0.67382758	      0.78438190	      0.17716814	      0.76174719	      0.74860529	      0.08674148	      0.71759772	      0.66963782	      0.17578088	      0.52630286	      0.76720911	     -0.19425427	      0.61544250	      0.71972815	     -0.13119646	      0.51063409	      0.65804340	     -0.17007954	      0.67299890	      0.50632474	      0.16357852	      0.74994812	      0.45615524	      0.12317540	      0.67136432	      0.41965591	      0.17303568	      0.46341541	      0.44624365	     -0.15975618	      0.50777017	      0.39167365	     -0.10799928	      0.43757059	      0.40534128	     -0.16435458	      0.55377509	      0.12573196	      0.07768311	      0.70156635	      0.11226482	      0.07416499	      0.67101141	      0.09329322	      0.17454507	      0.82823682	      0.05898380	      0.13838107	      0.33119324	      0.08314657	     -0.06010633	      0.50198706	      0.07687336	     -0.03294563	      0.48436102	      0.06678611	     -0.12896068	      0.61018921	      0.04651175	     -0.06030418	      0.64801459	      1.37951892	     -0.03387585	      0.53828339	      1.47837146	      0.16519502	      0.59995471	      1.48974011	     -0.24778893	      0.51414105	      1.28263318	      0.21605853	      0.64080438	      1.25434814	     -0.26660974	      0.45353629	      1.18802417	      0.24229697	      0.60765424	      1.14955164	     -0.30479358	      0.57385406	      0.94743481	      0.26374670	      0.52416699	      0.93723828	      0.30564172	      0.77711554	      0.97545514	     -0.22412987	      0.74367230	      0.94368561	     -0.28442950	      0.74931775	      0.05281798	      0.20411496	      0.78008594	      0.06549956	      0.09930409	      0.54497815	      0.03944412	     -0.13714490	      0.56002844	      0.04911645	     -0.03522983	      0.72003772	      1.59894092	      0.04667585	      0.73693274	      1.60185339	     -0.09087649	      0.73566809	      1.77541760	     -0.01451431	      0.00000000	      0.00000000	      0.00000000	      0.63386973	     -0.00750000	      0.10922786	      1.32389508	    626.07415417	     41.66995792	      0.52785019	     -0.00750000	     -0.09179851	      0.00000000	      0.00000000	      0.00000000	      0.00000000	      1.98689895	      0.00000000
